<svg width="12" height="16" viewBox="0 0 12 16" fill="none" xmlns="http://www.w3.org/2000/svg">
<path d="M0 15.5V1.616C0 1.15533 0.154333 0.771 0.463 0.463C0.771666 0.155 1.156 0.000666667 1.616 0H10.385C10.845 0 11.2293 0.154333 11.538 0.463C11.8467 0.771666 12.0007 1.156 12 1.616V15.5L6 12.923L0 15.5ZM1 13.95L6 11.8L11 13.95V1.616C11 1.462 10.936 1.32067 10.808 1.192C10.68 1.06333 10.5387 0.999333 10.384 1H1.616C1.462 1 1.32067 1.064 1.192 1.192C1.06333 1.32 0.999333 1.46133 1 1.616V13.95Z" fill="black"/>
</svg>
