<svg width="25" height="25" viewBox="0 0 25 25" fill="none" xmlns="http://www.w3.org/2000/svg">
<path d="M21.875 19.7917V5.20833C21.875 4.0625 20.9375 3.125 19.7917 3.125H5.20833C4.0625 3.125 3.125 4.0625 3.125 5.20833V19.7917C3.125 20.9375 4.0625 21.875 5.20833 21.875H19.7917C20.9375 21.875 21.875 20.9375 21.875 19.7917ZM9.27083 14.5625L11.4583 17.1979L14.6875 13.0417C14.8958 12.7708 15.3125 12.7708 15.5208 13.0521L19.1771 17.9271C19.2351 18.0045 19.2705 18.0965 19.2791 18.1928C19.2878 18.2891 19.2695 18.386 19.2263 18.4725C19.183 18.559 19.1165 18.6318 19.0342 18.6826C18.952 18.7335 18.8571 18.7604 18.7604 18.7604H6.27083C5.83333 18.7604 5.59375 18.2604 5.86458 17.9167L8.45833 14.5833C8.65625 14.3125 9.05208 14.3021 9.27083 14.5625Z" fill="#B1AEAE"/>
</svg>
