<svg width="24" height="24" viewBox="0 0 24 24" fill="none" xmlns="http://www.w3.org/2000/svg">
<path d="M3.42497 2.57519C3.36919 2.5194 3.30296 2.47515 3.23007 2.44496C3.15718 2.41477 3.07906 2.39923 3.00017 2.39923C2.92128 2.39923 2.84316 2.41477 2.77027 2.44496C2.69738 2.47515 2.63116 2.5194 2.57537 2.57519C2.51959 2.63097 2.47533 2.6972 2.44514 2.77009C2.41495 2.84298 2.39941 2.9211 2.39941 2.99999C2.39941 3.07888 2.41495 3.157 2.44514 3.22989C2.47533 3.30278 2.51959 3.369 2.57537 3.42479L6.77537 7.62239C4.69553 9.04146 3.24749 11.2122 2.73617 13.6776C2.7201 13.7548 2.71939 13.8344 2.73409 13.9119C2.74879 13.9894 2.77861 14.0633 2.82184 14.1292C2.86508 14.1952 2.92088 14.252 2.98607 14.2964C3.05126 14.3408 3.12455 14.3719 3.20177 14.388C3.27899 14.4041 3.35862 14.4048 3.43611 14.3901C3.5136 14.3754 3.58743 14.3456 3.6534 14.3023C3.71937 14.2591 3.77617 14.2033 3.82057 14.1381C3.86497 14.0729 3.8961 13.9996 3.91217 13.9224C4.14173 12.8145 4.58965 11.7634 5.22978 10.8305C5.86992 9.89763 6.68946 9.10156 7.64057 8.48879L9.54377 10.392C9.0503 10.7478 8.64002 11.2066 8.34132 11.7366C8.04262 12.2666 7.86264 12.8552 7.81382 13.4617C7.76499 14.0681 7.8485 14.6779 8.05857 15.2488C8.26863 15.8198 8.60023 16.3383 9.03042 16.7685C9.46062 17.1987 9.97914 17.5303 10.5501 17.7404C11.1211 17.9505 11.7309 18.034 12.3373 17.9851C12.9437 17.9363 13.5323 17.7563 14.0623 17.4576C14.5923 17.1589 15.0511 16.7487 15.407 16.2552L20.5754 21.4248C20.688 21.5375 20.8408 21.6007 21.0002 21.6007C21.1595 21.6007 21.3123 21.5375 21.425 21.4248C21.5376 21.3121 21.6009 21.1593 21.6009 21C21.6009 20.8407 21.5376 20.6879 21.425 20.5752L3.42497 2.57519ZM14.543 15.3912C14.3035 15.7733 13.9809 16.0965 13.5992 16.3368C13.2176 16.577 12.7867 16.7282 12.3386 16.7789C11.8905 16.8297 11.4367 16.7787 11.011 16.6299C10.5852 16.4811 10.1986 16.2382 9.87968 15.9193C9.56079 15.6004 9.3179 15.2137 9.16907 14.788C9.02024 14.3623 8.96931 13.9085 9.02005 13.4604C9.0708 13.0123 9.22192 12.5814 9.46218 12.1997C9.70244 11.8181 10.0256 11.4955 10.4078 11.256L14.543 15.3912ZM12.149 9.60239L16.1978 13.6512C16.1602 12.5894 15.7216 11.5812 14.9702 10.8299C14.2189 10.0786 13.2108 9.63997 12.149 9.60239ZM12.0002 7.19999C11.3162 7.19999 10.6454 7.28879 10.001 7.45559L9.03737 6.49199C9.99153 6.16751 10.9923 6.00131 12.0002 5.99999C16.4318 5.99999 20.3306 9.20759 21.2642 13.6776C21.2966 13.8335 21.2658 13.996 21.1785 14.1292C21.0912 14.2624 20.9545 14.3555 20.7986 14.388C20.6426 14.4205 20.4802 14.3896 20.3469 14.3023C20.2137 14.215 20.1206 14.0783 20.0882 13.9224C19.2698 9.99239 15.8486 7.19999 12.0002 7.19999Z" fill="#4C4545"/>
</svg>
