<svg width="22" height="23" viewBox="0 0 22 23" fill="none" xmlns="http://www.w3.org/2000/svg">
<path d="M11 1.91669C5.68425 1.91669 1.375 5.56362 1.375 10.0625C1.375 12.9327 3.13317 15.4507 5.78325 16.9017L4.76621 20.4461C4.70433 20.6612 4.93396 20.839 5.11271 20.7144L8.97279 18.0239C9.62683 18.1427 10.3043 18.2084 11 18.2084C16.3158 18.2084 20.625 14.5614 20.625 10.0625C20.625 5.56362 16.3158 1.91669 11 1.91669Z" fill="#381E1F"/>
<path d="M6.87484 8.62502H4.12484C3.87184 8.62502 3.6665 8.41035 3.6665 8.14585C3.6665 7.88135 3.87184 7.66669 4.12484 7.66669H6.87484C7.12784 7.66669 7.33317 7.88135 7.33317 8.14585C7.33317 8.41035 7.12784 8.62502 6.87484 8.62502Z" fill="#FFCA28"/>
<path d="M11.4585 12.4584V8.14585C11.4585 7.88135 11.6638 7.66669 11.9168 7.66669C12.1698 7.66669 12.3752 7.88135 12.3752 8.14585V12.4584C12.3752 12.7229 12.1698 12.9375 11.9168 12.9375C11.6638 12.9375 11.4585 12.7229 11.4585 12.4584Z" fill="#FFCA28"/>
<path d="M14.6665 12.4584V8.14585C14.6665 7.88135 14.8718 7.66669 15.1248 7.66669C15.3778 7.66669 15.5832 7.88135 15.5832 8.14585V12.4584C15.5832 12.7229 15.3778 12.9375 15.1248 12.9375C14.8718 12.9375 14.6665 12.7229 14.6665 12.4584Z" fill="#FFCA28"/>
<path d="M14.9514 10.1617L17.2037 7.80708C17.3829 7.61973 17.673 7.61973 17.8518 7.80708C18.031 7.99443 18.031 8.29775 17.8518 8.48462L15.5995 10.8392C15.4203 11.0266 15.1302 11.0266 14.9514 10.8392C14.7727 10.6524 14.7727 10.3491 14.9514 10.1617Z" fill="#FFCA28"/>
<path d="M16.5357 9.90197L18.2352 12.1622C18.3915 12.3702 18.3572 12.6716 18.1582 12.835C17.9593 12.9983 17.671 12.9624 17.5147 12.7545L15.8152 10.4942C15.659 10.2863 15.6933 9.98487 15.8922 9.82147C16.0912 9.65808 16.3795 9.69401 16.5357 9.90197Z" fill="#FFCA28"/>
<path d="M13.7502 12.9375H11.9168C11.6638 12.9375 11.4585 12.7229 11.4585 12.4584C11.4585 12.1939 11.6638 11.9792 11.9168 11.9792H13.7502C14.0032 11.9792 14.2085 12.1939 14.2085 12.4584C14.2085 12.7229 14.0032 12.9375 13.7502 12.9375Z" fill="#FFCA28"/>
<path d="M10.9691 12.2868L9.49282 7.97429C9.42636 7.79268 9.26502 7.68152 9.0904 7.67289C9.03952 7.67049 8.8429 7.67145 8.79661 7.67241C8.61694 7.67577 8.44965 7.78789 8.38136 7.97429L6.90507 12.2868C6.81432 12.534 6.93257 12.811 7.16907 12.9059C7.40557 13.0007 7.67048 12.8771 7.76123 12.6299L7.98398 11.9792H9.89065L10.1134 12.6299C10.2041 12.8771 10.4691 13.0003 10.7056 12.9059C10.9421 12.8115 11.0599 12.5336 10.9691 12.2868ZM8.31215 11.0208L8.93732 9.19424L9.56248 11.0208H8.31215Z" fill="#FFCA28"/>
<path d="M5.95817 8.625H5.0415V12.4583C5.0415 12.7228 5.24684 12.9375 5.49984 12.9375C5.75284 12.9375 5.95817 12.7228 5.95817 12.4583V8.625Z" fill="#FFCA28"/>
</svg>
