<svg width="4" height="17" viewBox="0 0 4 17" fill="none" xmlns="http://www.w3.org/2000/svg">
<path d="M4 8.33333C4 8.88937 3.78929 9.42264 3.41421 9.81581C3.03914 10.209 2.53043 10.4299 2 10.4299C1.46957 10.4299 0.960859 10.209 0.585786 9.81581C0.210714 9.42264 0 8.88937 0 8.33333C0 7.7773 0.210714 7.24403 0.585786 6.85086C0.960859 6.45768 1.46957 6.23679 2 6.23679C2.53043 6.23679 3.03914 6.45768 3.41421 6.85086C3.78929 7.24403 4 7.7773 4 8.33333ZM3.2 8.33333C3.19989 7.9996 3.07332 7.67958 2.84813 7.44367C2.62293 7.20777 2.31757 7.0753 1.9992 7.07541C1.68083 7.07552 1.37555 7.2082 1.15051 7.44427C0.925462 7.68033 0.799094 8.00044 0.7992 8.33417C0.799306 8.66791 0.925878 8.98793 1.15107 9.22383C1.37627 9.45974 1.68163 9.59221 2 9.5921C2.31837 9.59199 2.62365 9.4593 2.84869 9.22324C3.07374 8.98718 3.20011 8.66707 3.2 8.33333ZM4 2.09654C4 2.65258 3.78929 3.18584 3.41421 3.57902C3.03914 3.9722 2.53043 4.19308 2 4.19308C1.46957 4.19308 0.960859 3.9722 0.585786 3.57902C0.210714 3.18584 0 2.65258 0 2.09654C0 1.5405 0.210714 1.00724 0.585786 0.614063C0.960859 0.220885 1.46957 0 2 0C2.53043 0 3.03914 0.220885 3.41421 0.614063C3.78929 1.00724 4 1.5405 4 2.09654ZM3.2 2.09654C3.19989 1.76281 3.07332 1.44279 2.84813 1.20688C2.62293 0.970974 2.31757 0.838505 1.9992 0.838617C1.68083 0.838728 1.37555 0.97141 1.15051 1.20747C0.925462 1.44354 0.799094 1.76365 0.7992 2.09738C0.799306 2.43111 0.925878 2.75113 1.15107 2.98704C1.37627 3.22295 1.68163 3.35542 2 3.35531C2.31837 3.35519 2.62365 3.22251 2.84869 2.98645C3.07374 2.75038 3.20011 2.43028 3.2 2.09654ZM4 14.5701C4 15.1262 3.78929 15.6594 3.41421 16.0526C3.03914 16.4458 2.53043 16.6667 2 16.6667C1.46957 16.6667 0.960859 16.4458 0.585786 16.0526C0.210714 15.6594 0 15.1262 0 14.5701C0 14.0141 0.210714 13.4808 0.585786 13.0876C0.960859 12.6945 1.46957 12.4736 2 12.4736C2.53043 12.4736 3.03914 12.6945 3.41421 13.0876C3.78929 13.4808 4 14.0141 4 14.5701ZM3.2 14.5701C3.19989 14.2364 3.07332 13.9164 2.84813 13.6805C2.62293 13.4446 2.31757 13.3121 1.9992 13.3122C1.68083 13.3123 1.37555 13.445 1.15051 13.6811C0.925462 13.9171 0.799094 14.2372 0.7992 14.571C0.799306 14.9047 0.925878 15.2247 1.15107 15.4606C1.37627 15.6965 1.68163 15.829 2 15.8289C2.31837 15.8288 2.62365 15.6961 2.84869 15.46C3.07374 15.224 3.20011 14.9039 3.2 14.5701Z" fill="#4C4545"/>
</svg>
