<svg viewBox="55 65 80 80" xmlns="http://www.w3.org/2000/svg">
  <defs>
    <linearGradient id="envelopeGrad" x1="0%" y1="0%" x2="100%" y2="100%">
      <stop offset="0%" style="stop-color:#E8DFD0;stop-opacity:0.9" />
      <stop offset="50%" style="stop-color:#F5EFE5;stop-opacity:0.85" />
      <stop offset="100%" style="stop-color:#E0D5C5;stop-opacity:0.9" />
    </linearGradient>
    <linearGradient id="paperGrad" x1="0%" y1="0%" x2="100%" y2="100%">
      <stop offset="0%" style="stop-color:#FFFEF8;stop-opacity:1" />
      <stop offset="100%" style="stop-color:#FFF9ED;stop-opacity:0.95" />
    </linearGradient>
  </defs>

  <!-- 메인 편지 봉투 -->
  <g transform="translate(100, 100)">
    <g transform="rotate(-5)">
      <path d="M -26 -20 L 26 -20 L 26 40 L -26 40 Z" 
            fill="url(#envelopeGrad)"
            stroke="#C9B8A0" 
            stroke-width="0.8"/>
      <path d="M -26 -20 L 26 -20 L 26 40 L -26 40 Z" 
            fill="#D4C4B0"
            opacity="0.1"/>
    </g>

    <!-- 편지지 -->
    <g transform="translate(0, -20)">
      <rect x="-22" y="0" width="44" height="55" 
            fill="url(#paperGrad)"
            stroke="#E8DFD0" 
            stroke-width="1"/>
      <path d="M -22 0 Q -20 -3 -18 0 Q -16 -3 -14 0 Q -12 -3 -10 0 
               Q -8 -3 -6 0 Q -4 -3 -2 0 Q 0 -3 2 0 
               Q 4 -3 6 0 Q 8 -3 10 0 
               Q 12 -3 14 0 Q 16 -3 18 0 Q 20 -3 22 0" 
            fill="#F5EFE5" stroke="#E8DFD0" stroke-width="0.8"/>

      <!-- 친애하는 ~에게 -->
      <!-- <text x="5" y="46" text-anchor="middle"
            font-family=“”Allura
            font-size="4.5"
            fill="#B5967A"
            opacity="0.65">
        To my dearest,
      </text> -->
      <g transform="translate(-3,48)">
<path d="M20.2473 3.53547C20.2383 3.54147 20.2293 3.54447 20.2203 3.54447C20.2083 3.54447 20.2008 3.53847 20.1978 3.52647C20.1978 3.51747 20.1978 3.51147 20.1978 3.50847C20.1978 3.50547 20.2068 3.49047 20.2248 3.46347C20.2458 3.43947 20.2698 3.41247 20.2968 3.38247C20.3388 3.33147 20.3778 3.27747 20.4138 3.22047C20.4498 3.16647 20.4783 3.10647 20.4993 3.04047C20.5113 3.01347 20.5173 2.98797 20.5173 2.96397C20.5173 2.93397 20.5098 2.91297 20.4948 2.90097C20.4828 2.88597 20.4768 2.86647 20.4768 2.84247C20.4768 2.82447 20.4783 2.81097 20.4813 2.80197C20.4903 2.77497 20.5098 2.76147 20.5398 2.76147C20.5728 2.76147 20.5953 2.76147 20.6073 2.76147C20.6433 2.76147 20.6718 2.77947 20.6928 2.81547C20.7138 2.84847 20.7243 2.87847 20.7243 2.90547C20.7243 2.93547 20.7048 2.98047 20.6658 3.04047C20.6268 3.10047 20.5788 3.16497 20.5218 3.23397C20.4678 3.30297 20.4153 3.36597 20.3643 3.42297C20.3133 3.47997 20.2743 3.51747 20.2473 3.53547Z" fill="#B5967A"/>
<path d="M19.4301 3.04506C19.3761 3.04506 19.3266 3.03306 19.2816 3.00906C19.2396 2.98506 19.2081 2.94006 19.1871 2.87406C19.1841 2.86506 19.1811 2.85606 19.1781 2.84706C19.1781 2.83806 19.1781 2.82756 19.1781 2.81556C19.1781 2.75556 19.1916 2.68056 19.2186 2.59056C19.2456 2.50056 19.2786 2.41356 19.3176 2.32956C19.2996 2.35356 19.2786 2.38356 19.2546 2.41956C19.2306 2.45256 19.1961 2.49606 19.1511 2.55006C19.1391 2.56206 19.1256 2.56806 19.1106 2.56806C19.0896 2.56806 19.0791 2.55606 19.0791 2.53206C19.0791 2.51406 19.0851 2.49906 19.0971 2.48706C19.1751 2.38806 19.2441 2.29956 19.3041 2.22156C19.3671 2.14356 19.4136 2.07756 19.4436 2.02356C19.4436 2.01756 19.4526 1.99956 19.4706 1.96956C19.4886 1.93656 19.5126 1.89156 19.5426 1.83456C19.5186 1.83756 19.4976 1.84056 19.4796 1.84356C19.4646 1.84356 19.4511 1.84356 19.4391 1.84356C19.4181 1.84356 19.4001 1.83456 19.3851 1.81656C19.3701 1.79856 19.3686 1.77606 19.3806 1.74906C19.3956 1.70706 19.4286 1.68306 19.4796 1.67706C19.5306 1.67106 19.5756 1.66656 19.6146 1.66356C19.6176 1.65756 19.6236 1.65456 19.6326 1.65456C19.6686 1.58856 19.7031 1.52406 19.7361 1.46106C19.7691 1.39806 19.7961 1.34556 19.8171 1.30356C19.8411 1.26156 19.8531 1.23906 19.8531 1.23606C19.9131 1.14006 19.9521 1.07706 19.9701 1.04706C19.9881 1.01406 20.0121 0.994561 20.0421 0.988561C20.0751 0.985561 20.1096 0.987061 20.1456 0.993061C20.1846 0.99906 20.2101 1.01256 20.2221 1.03356C20.2311 1.04556 20.2356 1.06056 20.2356 1.07856C20.2356 1.10556 20.2296 1.13256 20.2176 1.15956C20.2056 1.18356 20.1936 1.20306 20.1816 1.21806C20.1696 1.23906 20.1531 1.25406 20.1321 1.26306C20.1141 1.26906 20.0976 1.28706 20.0826 1.31706C20.0526 1.37406 20.0196 1.43556 19.9836 1.50156C19.9476 1.56756 19.9101 1.63056 19.8711 1.69056L19.9251 1.68606C19.9971 1.68006 20.0646 1.67256 20.1276 1.66356C20.1936 1.65456 20.2686 1.65156 20.3526 1.65456C20.3676 1.65456 20.3826 1.65756 20.3976 1.66356C20.4156 1.66656 20.4246 1.67256 20.4246 1.68156C20.4246 1.69356 20.3856 1.71006 20.3076 1.73106C20.2776 1.74306 20.2116 1.75656 20.1096 1.77156C20.0106 1.78356 19.9086 1.79556 19.8036 1.80756C19.7736 1.86456 19.7466 1.91256 19.7226 1.95156C19.6986 1.98756 19.6821 2.01456 19.6731 2.03256C19.6071 2.17056 19.5471 2.29656 19.4931 2.41056C19.4421 2.52156 19.4136 2.61306 19.4076 2.68506C19.4046 2.69706 19.4031 2.70906 19.4031 2.72106C19.4031 2.73006 19.4031 2.74056 19.4031 2.75256C19.4031 2.87256 19.4421 2.93256 19.5201 2.93256C19.5681 2.93256 19.6296 2.90706 19.7046 2.85606C19.7796 2.80206 19.8561 2.73756 19.9341 2.66256C20.0121 2.58456 20.0826 2.51106 20.1456 2.44206C20.2116 2.37006 20.2566 2.31606 20.2806 2.28006C20.2896 2.27106 20.2986 2.26656 20.3076 2.26656C20.3196 2.26656 20.3286 2.27106 20.3346 2.28006C20.3436 2.28906 20.3451 2.30106 20.3391 2.31606C20.3121 2.36706 20.2656 2.43156 20.1996 2.50956C20.1366 2.58456 20.0646 2.66106 19.9836 2.73906C19.9056 2.81406 19.8291 2.87856 19.7541 2.93256C19.7151 2.96256 19.6656 2.98806 19.6056 3.00906C19.5486 3.03306 19.4901 3.04506 19.4301 3.04506Z" fill="#B5967A"/>
<path d="M17.9276 3.22511C17.8076 3.22511 17.7476 3.19211 17.7476 3.12611C17.7476 3.07811 17.7731 3.02861 17.8241 2.97761C17.8631 2.93861 17.9066 2.90711 17.9546 2.88311C18.0026 2.85911 18.0326 2.84711 18.0446 2.84711C18.0596 2.84711 18.0671 2.85311 18.0671 2.86511C18.0701 2.87711 18.0641 2.88611 18.0491 2.89211C18.0191 2.91011 17.9846 2.93561 17.9456 2.96861C17.9096 2.99861 17.8916 3.03161 17.8916 3.06761C17.8916 3.11561 17.9201 3.13961 17.9771 3.13961C18.0461 3.13961 18.1181 3.11861 18.1931 3.07661C18.2681 3.03761 18.3371 2.98661 18.4001 2.92361C18.4661 2.86061 18.5186 2.79761 18.5576 2.73461C18.5996 2.66861 18.6206 2.61161 18.6206 2.56361C18.6206 2.52461 18.6071 2.48861 18.5801 2.45561C18.5531 2.42261 18.4976 2.38361 18.4136 2.33861C18.3566 2.30561 18.3011 2.27111 18.2471 2.23511C18.1961 2.19911 18.1571 2.15561 18.1301 2.10461C18.1061 2.14661 18.0746 2.19761 18.0356 2.25761C17.9996 2.31461 17.9561 2.37461 17.9051 2.43761C17.8871 2.45561 17.8691 2.46461 17.8511 2.46461C17.8331 2.46461 17.8241 2.45711 17.8241 2.44211C17.8241 2.43311 17.8316 2.41811 17.8466 2.39711C17.9276 2.30111 17.9876 2.21261 18.0266 2.13161C18.0656 2.05061 18.0926 1.98911 18.1076 1.94711C18.1196 1.86011 18.1601 1.77761 18.2291 1.69961C18.2981 1.62161 18.3821 1.55411 18.4811 1.49711C18.5801 1.43711 18.6806 1.39061 18.7826 1.35761C18.8876 1.32461 18.9806 1.30811 19.0616 1.30811C19.1426 1.30811 19.2146 1.32311 19.2776 1.35311C19.3406 1.38311 19.3721 1.43111 19.3721 1.49711C19.3721 1.53311 19.3616 1.57211 19.3406 1.61411C19.3136 1.67111 19.2686 1.72211 19.2056 1.76711C19.2026 1.77011 19.1981 1.77161 19.1921 1.77161C19.1681 1.77161 19.1561 1.76111 19.1561 1.74011C19.1561 1.72511 19.1636 1.71011 19.1786 1.69511C19.2026 1.67411 19.2221 1.64861 19.2371 1.61861C19.2521 1.58861 19.2596 1.56011 19.2596 1.53311C19.2596 1.47911 19.2281 1.45211 19.1651 1.45211C19.0991 1.45211 19.0121 1.47011 18.9041 1.50611C18.7991 1.54211 18.7016 1.58861 18.6116 1.64561C18.5096 1.71161 18.4241 1.78361 18.3551 1.86161C18.2861 1.93961 18.2516 2.00861 18.2516 2.06861C18.2516 2.09861 18.2606 2.12711 18.2786 2.15411C18.2996 2.17811 18.3386 2.20661 18.3956 2.23961C18.4256 2.25761 18.4676 2.28161 18.5216 2.31161C18.5756 2.33861 18.6221 2.36411 18.6611 2.38811C18.7841 2.46311 18.8456 2.54261 18.8456 2.62661C18.8456 2.69561 18.8156 2.76611 18.7556 2.83811C18.6956 2.90711 18.6176 2.97011 18.5216 3.02711C18.4286 3.08711 18.3296 3.13511 18.2246 3.17111C18.1196 3.20711 18.0206 3.22511 17.9276 3.22511Z" fill="#B5967A"/>
<path d="M16.8506 3.06747C16.7156 3.06747 16.5986 3.03597 16.4996 2.97297C16.4006 2.90997 16.3511 2.81397 16.3511 2.68497C16.3511 2.61597 16.3721 2.53197 16.4141 2.43297C16.4441 2.36397 16.4996 2.28447 16.5806 2.19447C16.6616 2.10447 16.7561 2.01747 16.8641 1.93347C16.9721 1.84647 17.0816 1.77597 17.1926 1.72197C17.3036 1.66497 17.4041 1.63647 17.4941 1.63647C17.5271 1.63647 17.5571 1.64097 17.5841 1.64997C17.6351 1.66797 17.6696 1.69647 17.6876 1.73547C17.7086 1.77447 17.7191 1.81497 17.7191 1.85697C17.7191 1.89597 17.7131 1.93347 17.7011 1.96947C17.6891 2.00547 17.6741 2.03697 17.6561 2.06397C17.6021 2.14497 17.5241 2.21697 17.4221 2.27997C17.3231 2.34297 17.2211 2.39247 17.1161 2.42847C17.0141 2.46447 16.9301 2.48547 16.8641 2.49147H16.8551C16.8161 2.49147 16.7966 2.47947 16.7966 2.45547C16.7966 2.44047 16.8086 2.43297 16.8326 2.43297C16.9046 2.42697 16.9946 2.39397 17.1026 2.33397C17.2136 2.27097 17.3111 2.20647 17.3951 2.14047C17.4311 2.11047 17.4731 2.06847 17.5211 2.01447C17.5721 1.96047 17.5976 1.90797 17.5976 1.85697C17.5976 1.80297 17.5721 1.77597 17.5211 1.77597C17.4941 1.77597 17.4656 1.78197 17.4356 1.79397C17.4086 1.80597 17.3861 1.81497 17.3681 1.82097C17.2811 1.86297 17.1851 1.92897 17.0801 2.01897C16.9751 2.10597 16.8791 2.20497 16.7921 2.31597C16.7081 2.42397 16.6496 2.53347 16.6166 2.64447C16.6076 2.66847 16.6016 2.69247 16.5986 2.71647C16.5956 2.73747 16.5941 2.75847 16.5941 2.77947C16.5941 2.85147 16.6166 2.90247 16.6616 2.93247C16.7096 2.96247 16.7666 2.97747 16.8326 2.97747C16.9316 2.97747 17.0336 2.95647 17.1386 2.91447C17.2436 2.86947 17.3456 2.81247 17.4446 2.74347C17.5436 2.67447 17.6336 2.60097 17.7146 2.52297C17.7986 2.44197 17.8691 2.36397 17.9261 2.28897C17.9351 2.27697 17.9456 2.27097 17.9576 2.27097C17.9696 2.26797 17.9771 2.26947 17.9801 2.27547C17.9921 2.27847 17.9981 2.28747 17.9981 2.30247C17.9981 2.31447 17.9951 2.32647 17.9891 2.33847C17.9051 2.45547 17.8031 2.56947 17.6831 2.68047C17.5661 2.79147 17.4356 2.88447 17.2916 2.95947C17.1506 3.03147 17.0036 3.06747 16.8506 3.06747Z" fill="#B5967A"/>
<path d="M15.6202 3.05398C15.5692 3.05398 15.5242 3.04198 15.4852 3.01798C15.4462 2.99698 15.4192 2.95498 15.4042 2.89198C15.3952 2.85898 15.3907 2.82598 15.3907 2.79298C15.3907 2.70298 15.4132 2.61598 15.4582 2.53198C15.5062 2.44498 15.5617 2.36548 15.6247 2.29348C15.6877 2.21848 15.7417 2.15548 15.7867 2.10448C15.8107 2.08048 15.8377 2.04898 15.8677 2.00998C15.9007 1.97098 15.9172 1.93198 15.9172 1.89298C15.9172 1.86898 15.9052 1.84648 15.8812 1.82548C15.8572 1.80148 15.8137 1.78498 15.7507 1.77598C15.7147 1.76998 15.6802 1.76548 15.6472 1.76248C15.6172 1.75648 15.5857 1.75348 15.5527 1.75348C15.4687 1.86748 15.3862 1.98298 15.3052 2.09998C15.2272 2.21398 15.1432 2.32648 15.0532 2.43748C15.0322 2.45848 15.0142 2.46898 14.9992 2.46898C14.9812 2.46898 14.9722 2.45998 14.9722 2.44198C14.9722 2.42398 14.9812 2.40598 14.9992 2.38798C15.1612 2.18998 15.3007 1.97848 15.4177 1.75348C15.4027 1.75348 15.3802 1.75348 15.3502 1.75348C15.3202 1.75048 15.2962 1.74748 15.2782 1.74448C15.2572 1.73848 15.2407 1.72948 15.2287 1.71748C15.2167 1.70548 15.2107 1.69348 15.2107 1.68148C15.2107 1.66348 15.2182 1.65298 15.2332 1.64998C15.2722 1.63798 15.3142 1.61998 15.3592 1.59598C15.4042 1.57198 15.4462 1.54048 15.4852 1.50148C15.5272 1.45948 15.5662 1.41598 15.6022 1.37098C15.6382 1.32298 15.6667 1.28698 15.6877 1.26298C15.7087 1.24798 15.7312 1.24048 15.7552 1.24048C15.7702 1.24048 15.7837 1.24498 15.7957 1.25398C15.8107 1.26298 15.8182 1.27648 15.8182 1.29448C15.8182 1.31548 15.8092 1.34248 15.7912 1.37548C15.7642 1.41748 15.7342 1.46398 15.7012 1.51498C15.6712 1.56598 15.6427 1.61248 15.6157 1.65448C15.6697 1.65748 15.7237 1.66048 15.7777 1.66348C15.8317 1.66648 15.8872 1.66798 15.9442 1.66798C15.9742 1.66798 16.0027 1.66798 16.0297 1.66798C16.0597 1.66498 16.0897 1.66348 16.1197 1.66348C16.2097 1.66348 16.2547 1.68598 16.2547 1.73098C16.2547 1.76098 16.2382 1.79848 16.2052 1.84348C16.1752 1.88548 16.1377 1.93198 16.0927 1.98298C15.9907 2.09998 15.9037 2.22298 15.8317 2.35198C15.7597 2.48098 15.7117 2.57998 15.6877 2.64898C15.6637 2.72098 15.6517 2.77498 15.6517 2.81098C15.6517 2.88298 15.6802 2.91898 15.7372 2.91898C15.7882 2.91898 15.8497 2.89348 15.9217 2.84248C15.9967 2.79148 16.0732 2.72998 16.1512 2.65798C16.2292 2.58298 16.2997 2.51098 16.3627 2.44198C16.4257 2.36998 16.4707 2.31598 16.4977 2.27998C16.5037 2.27098 16.5127 2.26648 16.5247 2.26648C16.5367 2.26648 16.5472 2.27248 16.5562 2.28448C16.5652 2.29348 16.5652 2.30548 16.5562 2.32048C16.5232 2.37148 16.4752 2.43598 16.4122 2.51398C16.3492 2.58898 16.2787 2.66398 16.2007 2.73898C16.1227 2.81398 16.0462 2.87848 15.9712 2.93248C15.9322 2.96248 15.8782 2.98948 15.8092 3.01348C15.7432 3.04048 15.6802 3.05398 15.6202 3.05398Z" fill="#B5967A"/>
<path d="M14.2428 3.04497C14.1918 3.04497 14.1438 3.03297 14.0988 3.00897C14.0568 2.98497 14.0253 2.93997 14.0043 2.87397C13.9953 2.84697 13.9908 2.80947 13.9908 2.76147C13.9908 2.69547 13.9998 2.62197 14.0178 2.54097C14.0358 2.45997 14.0553 2.39097 14.0763 2.33397C14.0613 2.33997 14.0328 2.36697 13.9908 2.41497C13.9518 2.45997 13.9023 2.51547 13.8423 2.58147C13.7853 2.64447 13.7208 2.70897 13.6488 2.77497C13.5798 2.83797 13.5078 2.89047 13.4328 2.93247C13.3578 2.97447 13.2843 2.99547 13.2123 2.99547C13.1643 2.99547 13.1133 2.98197 13.0593 2.95497C13.0053 2.92497 12.9618 2.88747 12.9288 2.84247C12.8838 2.78247 12.8613 2.72097 12.8613 2.65797C12.8613 2.57697 12.8883 2.49297 12.9423 2.40597C12.9993 2.31897 13.0713 2.23497 13.1583 2.15397C13.2483 2.06997 13.3428 1.99497 13.4418 1.92897C13.5438 1.85997 13.6398 1.80297 13.7298 1.75797C13.8228 1.70997 13.8978 1.67847 13.9548 1.66347C14.0148 1.64547 14.0823 1.63647 14.1573 1.63647C14.1993 1.63647 14.2428 1.64247 14.2878 1.65447C14.3328 1.66347 14.3703 1.67997 14.4003 1.70397C14.4243 1.71597 14.4438 1.73247 14.4588 1.75347C14.4738 1.77447 14.4813 1.79697 14.4813 1.82097C14.4813 1.84497 14.4708 1.85247 14.4498 1.84347C14.4258 1.80747 14.3928 1.78497 14.3508 1.77597C14.3118 1.76397 14.2713 1.75797 14.2293 1.75797C14.1093 1.75797 13.9773 1.79697 13.8333 1.87497C13.6893 1.95297 13.5603 2.04447 13.4463 2.14947C13.4103 2.17947 13.3608 2.23197 13.2978 2.30697C13.2378 2.37897 13.1823 2.45847 13.1313 2.54547C13.0803 2.63247 13.0548 2.71197 13.0548 2.78397C13.0548 2.82297 13.0653 2.85747 13.0863 2.88747C13.0983 2.90847 13.1178 2.91897 13.1448 2.91897C13.1868 2.91897 13.2423 2.89647 13.3113 2.85147C13.3833 2.80647 13.4568 2.75247 13.5318 2.68947C13.6068 2.62347 13.6743 2.56047 13.7343 2.50047C13.7973 2.44047 13.8423 2.39697 13.8693 2.36997C13.8843 2.35497 13.9128 2.32497 13.9548 2.27997C13.9998 2.23197 14.0478 2.18097 14.0988 2.12697C14.1498 2.07297 14.1948 2.02647 14.2338 1.98747C14.2758 1.94847 14.3028 1.92897 14.3148 1.92897C14.3298 1.92897 14.3538 1.93347 14.3868 1.94247C14.4228 1.94847 14.4528 1.95897 14.4768 1.97397C14.5008 1.98897 14.5053 2.00847 14.4903 2.03247C14.4123 2.14647 14.3493 2.26647 14.3013 2.39247C14.2563 2.51547 14.2293 2.61297 14.2203 2.68497C14.2173 2.69697 14.2158 2.70897 14.2158 2.72097C14.2158 2.72997 14.2158 2.74047 14.2158 2.75247C14.2158 2.87247 14.2578 2.93247 14.3418 2.93247C14.3868 2.93247 14.4468 2.90547 14.5218 2.85147C14.5968 2.79747 14.6733 2.73297 14.7513 2.65797C14.8293 2.58297 14.8998 2.51097 14.9628 2.44197C15.0288 2.36997 15.0738 2.31597 15.0978 2.27997C15.1068 2.27097 15.1158 2.26647 15.1248 2.26647C15.1368 2.26647 15.1473 2.27247 15.1563 2.28447C15.1653 2.29347 15.1653 2.30547 15.1563 2.32047C15.1233 2.37447 15.0753 2.43897 15.0123 2.51397C14.9493 2.58897 14.8788 2.66397 14.8008 2.73897C14.7228 2.81397 14.6463 2.87847 14.5713 2.93247C14.5323 2.96247 14.4828 2.98797 14.4228 3.00897C14.3628 3.03297 14.3028 3.04497 14.2428 3.04497Z" fill="#B5967A"/>
<path d="M11.9595 3.06747C11.8245 3.06747 11.7075 3.03597 11.6085 2.97297C11.5095 2.90997 11.46 2.81397 11.46 2.68497C11.46 2.61597 11.481 2.53197 11.523 2.43297C11.553 2.36397 11.6085 2.28447 11.6895 2.19447C11.7705 2.10447 11.865 2.01747 11.973 1.93347C12.081 1.84647 12.1905 1.77597 12.3015 1.72197C12.4125 1.66497 12.513 1.63647 12.603 1.63647C12.636 1.63647 12.666 1.64097 12.693 1.64997C12.744 1.66797 12.7785 1.69647 12.7965 1.73547C12.8175 1.77447 12.828 1.81497 12.828 1.85697C12.828 1.89597 12.822 1.93347 12.81 1.96947C12.798 2.00547 12.783 2.03697 12.765 2.06397C12.711 2.14497 12.633 2.21697 12.531 2.27997C12.432 2.34297 12.33 2.39247 12.225 2.42847C12.123 2.46447 12.039 2.48547 11.973 2.49147H11.964C11.925 2.49147 11.9055 2.47947 11.9055 2.45547C11.9055 2.44047 11.9175 2.43297 11.9415 2.43297C12.0135 2.42697 12.1035 2.39397 12.2115 2.33397C12.3225 2.27097 12.42 2.20647 12.504 2.14047C12.54 2.11047 12.582 2.06847 12.63 2.01447C12.681 1.96047 12.7065 1.90797 12.7065 1.85697C12.7065 1.80297 12.681 1.77597 12.63 1.77597C12.603 1.77597 12.5745 1.78197 12.5445 1.79397C12.5175 1.80597 12.495 1.81497 12.477 1.82097C12.39 1.86297 12.294 1.92897 12.189 2.01897C12.084 2.10597 11.988 2.20497 11.901 2.31597C11.817 2.42397 11.7585 2.53347 11.7255 2.64447C11.7165 2.66847 11.7105 2.69247 11.7075 2.71647C11.7045 2.73747 11.703 2.75847 11.703 2.77947C11.703 2.85147 11.7255 2.90247 11.7705 2.93247C11.8185 2.96247 11.8755 2.97747 11.9415 2.97747C12.0405 2.97747 12.1425 2.95647 12.2475 2.91447C12.3525 2.86947 12.4545 2.81247 12.5535 2.74347C12.6525 2.67447 12.7425 2.60097 12.8235 2.52297C12.9075 2.44197 12.978 2.36397 13.035 2.28897C13.044 2.27697 13.0545 2.27097 13.0665 2.27097C13.0785 2.26797 13.086 2.26947 13.089 2.27547C13.101 2.27847 13.107 2.28747 13.107 2.30247C13.107 2.31447 13.104 2.32647 13.098 2.33847C13.014 2.45547 12.912 2.56947 12.792 2.68047C12.675 2.79147 12.5445 2.88447 12.4005 2.95947C12.2595 3.03147 12.1125 3.06747 11.9595 3.06747Z" fill="#B5967A"/>
<path d="M11.0732 3.49048C10.9952 3.47848 10.9397 3.44098 10.9067 3.37798C10.8737 3.31498 10.8572 3.23698 10.8572 3.14398C10.8572 3.03298 10.8722 2.91298 10.9022 2.78398C10.9352 2.65498 10.9727 2.53348 11.0147 2.41948C11.0567 2.30548 11.0897 2.21848 11.1137 2.15848C11.0447 2.23948 10.9652 2.32798 10.8752 2.42398C10.7882 2.51998 10.6967 2.61148 10.6007 2.69848C10.5047 2.78548 10.4117 2.85748 10.3217 2.91448C10.2347 2.96848 10.1582 2.99548 10.0922 2.99548C10.0442 2.99548 9.99321 2.98198 9.93921 2.95498C9.88521 2.92498 9.84171 2.88748 9.80871 2.84248C9.76371 2.78248 9.74121 2.72098 9.74121 2.65798C9.74121 2.57698 9.76821 2.49298 9.82221 2.40598C9.87921 2.31898 9.95121 2.23498 10.0382 2.15398C10.1282 2.06998 10.2227 1.99498 10.3217 1.92898C10.4237 1.85998 10.5197 1.80298 10.6097 1.75798C10.7027 1.70998 10.7777 1.67848 10.8347 1.66348C10.8647 1.65748 10.8962 1.65148 10.9292 1.64548C10.9622 1.63948 10.9967 1.63648 11.0327 1.63648C11.0777 1.63648 11.1227 1.64248 11.1677 1.65448C11.2127 1.66348 11.2502 1.67998 11.2802 1.70398L11.2982 1.71748C11.3702 1.55248 11.4497 1.38598 11.5367 1.21798C11.6237 1.04698 11.7167 0.890983 11.8157 0.749983C11.9147 0.608982 12.0197 0.496482 12.1307 0.412482C12.2417 0.325482 12.3572 0.281982 12.4772 0.281982C12.4922 0.281982 12.5072 0.283482 12.5222 0.286482C12.5372 0.286482 12.5507 0.287982 12.5627 0.290982C12.6377 0.305983 12.6902 0.332982 12.7202 0.371982C12.7532 0.407982 12.7697 0.451482 12.7697 0.502483C12.7697 0.538482 12.7622 0.577482 12.7472 0.619482C12.7352 0.658482 12.7172 0.697482 12.6932 0.736483C12.6272 0.853483 12.5402 0.968983 12.4322 1.08298C12.3272 1.19698 12.2117 1.30798 12.0857 1.41598C11.9597 1.52098 11.8337 1.62298 11.7077 1.72198C11.5847 1.82098 11.4722 1.91398 11.3702 2.00098C11.3252 2.10598 11.2802 2.22898 11.2352 2.36998C11.1902 2.51098 11.1527 2.63098 11.1227 2.72998C11.1047 2.80198 11.0897 2.86948 11.0777 2.93248C11.0687 2.99548 11.0642 3.05398 11.0642 3.10798C11.0642 3.20698 11.0822 3.28798 11.1182 3.35098C11.1482 3.39898 11.1857 3.42298 11.2307 3.42298C11.2637 3.42298 11.2937 3.41098 11.3207 3.38698C11.3327 3.38098 11.3432 3.37348 11.3522 3.36448C11.3642 3.35548 11.3777 3.34648 11.3927 3.33748C11.4107 3.32848 11.4257 3.32398 11.4377 3.32398C11.4587 3.32398 11.4602 3.34048 11.4422 3.37348C11.4332 3.38248 11.4227 3.39298 11.4107 3.40498C11.3987 3.41998 11.3852 3.43498 11.3702 3.44998C11.3492 3.46498 11.3177 3.47698 11.2757 3.48598C11.2337 3.49498 11.1917 3.49948 11.1497 3.49948C11.1377 3.49948 11.1242 3.49798 11.1092 3.49498C11.0972 3.49498 11.0852 3.49348 11.0732 3.49048ZM11.5052 1.74448C11.6252 1.66348 11.7557 1.56298 11.8967 1.44298C12.0377 1.31998 12.1697 1.18948 12.2927 1.05148C12.4157 0.910482 12.5102 0.776982 12.5762 0.650982C12.6152 0.578983 12.6347 0.521983 12.6347 0.479983C12.6347 0.428983 12.6122 0.403482 12.5672 0.403482C12.5252 0.403482 12.4697 0.427482 12.4007 0.475482C12.1997 0.631482 12.0302 0.817483 11.8922 1.03348C11.7542 1.24648 11.6252 1.48348 11.5052 1.74448ZM9.96621 2.88748C9.98121 2.90548 10.0007 2.91448 10.0247 2.91448C10.0697 2.91448 10.1222 2.89498 10.1822 2.85598C10.2452 2.81698 10.2872 2.78698 10.3082 2.76598C10.4612 2.64298 10.6142 2.51098 10.7672 2.36998C10.9232 2.22598 11.0687 2.08198 11.2037 1.93798C11.2157 1.91098 11.2262 1.88548 11.2352 1.86148C11.2442 1.83448 11.2547 1.80898 11.2667 1.78498C11.2217 1.76698 11.1692 1.75798 11.1092 1.75798C10.9892 1.75798 10.8572 1.79698 10.7132 1.87498C10.5692 1.95298 10.4402 2.04448 10.3262 2.14948C10.2902 2.17948 10.2407 2.23198 10.1777 2.30698C10.1177 2.37898 10.0622 2.45848 10.0112 2.54548C9.96021 2.63248 9.93471 2.71198 9.93471 2.78398C9.93471 2.82298 9.94521 2.85748 9.96621 2.88748Z" fill="#B5967A"/>
<path d="M6.82573 4.65144C6.78973 4.64244 6.75823 4.63344 6.73123 4.62444C6.67423 4.59444 6.63373 4.55994 6.60973 4.52094C6.58573 4.48494 6.57373 4.44594 6.57373 4.40394C6.57373 4.33494 6.59773 4.25994 6.64573 4.17894C6.69073 4.10094 6.75073 4.01994 6.82573 3.93594C6.90073 3.84594 6.99523 3.75444 7.10923 3.66144C7.22623 3.56844 7.34773 3.47844 7.47373 3.39144C7.59973 3.30744 7.71073 3.23394 7.80673 3.17094C7.85773 3.06594 7.91023 2.95344 7.96423 2.83344C8.02123 2.71344 8.07523 2.59794 8.12623 2.48694C8.17723 2.37294 8.22073 2.26944 8.25673 2.17644C8.29573 2.08344 8.32423 2.01144 8.34223 1.96044C8.29423 2.01744 8.23873 2.08944 8.17573 2.17644C8.11273 2.26044 8.04373 2.35044 7.96873 2.44644C7.89373 2.53944 7.81573 2.62794 7.73473 2.71194C7.65673 2.79594 7.57573 2.86494 7.49173 2.91894C7.40773 2.96994 7.32523 2.99544 7.24423 2.99544C7.12423 2.99544 7.04023 2.96544 6.99223 2.90544C6.94723 2.84244 6.92473 2.76894 6.92473 2.68494C6.92473 2.62494 6.93223 2.56494 6.94723 2.50494C6.96523 2.44494 6.98773 2.38944 7.01473 2.33844C7.03273 2.30244 7.06123 2.25444 7.10023 2.19444C7.13923 2.13444 7.18423 2.07294 7.23523 2.00994C7.28623 1.94694 7.33723 1.89444 7.38823 1.85244C7.44223 1.81044 7.49323 1.78944 7.54123 1.78944C7.59823 1.78944 7.64173 1.81044 7.67173 1.85244C7.70173 1.89144 7.70473 1.91844 7.68073 1.93344C7.63273 1.96644 7.57273 2.01744 7.50073 2.08644C7.43173 2.15244 7.36273 2.22894 7.29373 2.31594C7.27573 2.33994 7.25323 2.37744 7.22623 2.42844C7.20223 2.47944 7.17973 2.53494 7.15873 2.59494C7.13773 2.65194 7.12723 2.70444 7.12723 2.75244C7.12723 2.77344 7.13023 2.79444 7.13623 2.81544C7.14223 2.83344 7.15273 2.84694 7.16773 2.85594C7.19173 2.87394 7.21873 2.88294 7.24873 2.88294C7.29073 2.88294 7.33723 2.86944 7.38823 2.84244C7.44223 2.81544 7.49323 2.78094 7.54123 2.73894C7.70923 2.57694 7.85923 2.40744 7.99123 2.23044C8.12323 2.05344 8.26273 1.87794 8.40973 1.70394C8.41873 1.67394 8.44423 1.65894 8.48623 1.65894C8.53423 1.65894 8.58373 1.67394 8.63473 1.70394C8.68873 1.73094 8.71123 1.75344 8.70223 1.77144C8.67523 1.83144 8.63923 1.91094 8.59423 2.00994C8.55223 2.10894 8.50573 2.21544 8.45473 2.32944C8.40373 2.44344 8.35273 2.55744 8.30173 2.67144C8.25073 2.78244 8.20423 2.88294 8.16223 2.97294C8.19823 2.95494 8.26273 2.90994 8.35573 2.83794C8.44873 2.76594 8.55073 2.67894 8.66173 2.57694C8.77273 2.47194 8.87323 2.36394 8.96323 2.25294C8.98123 2.23494 8.99473 2.22594 9.00373 2.22594C9.02173 2.22594 9.03073 2.23794 9.03073 2.26194C9.03073 2.28294 9.02173 2.30694 9.00373 2.33394C8.95873 2.39394 8.89573 2.46444 8.81473 2.54544C8.73673 2.62644 8.65123 2.70894 8.55823 2.79294C8.46823 2.87394 8.37973 2.94744 8.29273 3.01344C8.20573 3.08244 8.13073 3.13494 8.06773 3.17094C7.97473 3.36894 7.88473 3.55494 7.79773 3.72894C7.71073 3.90594 7.63123 4.04844 7.55923 4.15644C7.51123 4.23144 7.45273 4.30794 7.38373 4.38594C7.31473 4.46394 7.23973 4.52844 7.15873 4.57944C7.07773 4.63344 6.99223 4.66044 6.90223 4.66044C6.89023 4.66044 6.87823 4.65894 6.86623 4.65594C6.85423 4.65594 6.84073 4.65444 6.82573 4.65144ZM6.83923 4.55244C6.86323 4.55244 6.89173 4.54494 6.92473 4.52994C6.96073 4.51494 6.99823 4.49094 7.03723 4.45794C7.15123 4.36494 7.24723 4.25544 7.32523 4.12944C7.40323 4.00644 7.47223 3.87594 7.53223 3.73794C7.59523 3.59994 7.65823 3.46794 7.72123 3.34194C7.60423 3.42894 7.47223 3.53094 7.32523 3.64794C7.17823 3.76794 7.04473 3.88644 6.92473 4.00344C6.85273 4.07544 6.80023 4.14594 6.76723 4.21494C6.73423 4.28694 6.71773 4.34994 6.71773 4.40394C6.71773 4.50294 6.75823 4.55244 6.83923 4.55244Z" fill="#B5967A"/>
<path d="M4.31476 3.05857C4.29076 3.05857 4.28326 3.04807 4.29226 3.02707C4.30426 3.00607 4.32526 2.95357 4.35526 2.86957C4.38826 2.78257 4.42426 2.68057 4.46326 2.56357C4.50526 2.44657 4.54576 2.33407 4.58476 2.22607C4.55476 2.27107 4.52176 2.31457 4.48576 2.35657C4.45276 2.39857 4.42426 2.43307 4.40026 2.46007C4.39126 2.46907 4.38526 2.47357 4.38226 2.47357C4.37326 2.47357 4.36876 2.46457 4.36876 2.44657C4.36876 2.41057 4.37776 2.37757 4.39576 2.34757C4.45876 2.26657 4.50676 2.20357 4.53976 2.15857C4.57276 2.11057 4.59976 2.06857 4.62076 2.03257C4.64476 1.99357 4.66876 1.95007 4.69276 1.90207C4.69876 1.86907 4.70926 1.82857 4.72426 1.78057C4.74226 1.73257 4.78276 1.70857 4.84576 1.70857C4.93876 1.70857 4.98526 1.72807 4.98526 1.76707C4.98526 1.77907 4.98226 1.79257 4.97626 1.80757C4.97026 1.81957 4.96426 1.83307 4.95826 1.84807C4.92226 1.92907 4.88326 2.02207 4.84126 2.12707C4.79926 2.23207 4.76026 2.33107 4.72426 2.42407C4.69126 2.51707 4.66576 2.58907 4.64776 2.64007C4.68076 2.59807 4.73026 2.53957 4.79626 2.46457C4.86226 2.38657 4.93726 2.30257 5.02126 2.21257C5.10826 2.11957 5.19676 2.03257 5.28676 1.95157C5.37976 1.86757 5.46676 1.79857 5.54776 1.74457C5.62876 1.69057 5.69776 1.66357 5.75476 1.66357C5.82376 1.66357 5.85826 1.70257 5.85826 1.78057C5.85826 1.84057 5.83426 1.91857 5.78626 2.01457C5.76526 2.05957 5.73676 2.12107 5.70076 2.19907C5.66476 2.27407 5.63626 2.33107 5.61526 2.37007C5.66926 2.32207 5.73076 2.26957 5.79976 2.21257C5.86876 2.15257 5.94076 2.09707 6.01576 2.04607C6.09376 1.99507 6.16576 1.95757 6.23176 1.93357C6.24676 1.92757 6.27676 1.91857 6.32176 1.90657C6.36676 1.89157 6.40576 1.88407 6.43876 1.88407C6.48376 1.88407 6.50626 1.89907 6.50626 1.92907C6.50626 1.95007 6.49576 1.97257 6.47476 1.99657C6.42376 2.07457 6.37726 2.15857 6.33526 2.24857C6.29626 2.33557 6.26476 2.41807 6.24076 2.49607C6.21676 2.57407 6.20176 2.63707 6.19576 2.68507C6.19276 2.69707 6.19126 2.70907 6.19126 2.72107C6.19126 2.73007 6.19126 2.74057 6.19126 2.75257C6.19126 2.87257 6.23026 2.93257 6.30826 2.93257C6.35626 2.93257 6.41776 2.90707 6.49276 2.85607C6.56776 2.80207 6.64426 2.73757 6.72226 2.66257C6.80026 2.58457 6.87076 2.51107 6.93376 2.44207C6.99976 2.37007 7.04476 2.31607 7.06876 2.28007C7.07776 2.27107 7.08676 2.26657 7.09576 2.26657C7.10776 2.26657 7.11676 2.27107 7.12276 2.28007C7.13176 2.28907 7.13326 2.30107 7.12726 2.31607C7.10026 2.36707 7.05376 2.43157 6.98776 2.50957C6.92476 2.58457 6.85276 2.66107 6.77176 2.73907C6.69376 2.81407 6.61726 2.87857 6.54226 2.93257C6.50326 2.96257 6.45376 2.98807 6.39376 3.00907C6.33676 3.03307 6.27826 3.04507 6.21826 3.04507C6.16426 3.04507 6.11476 3.03307 6.06976 3.00907C6.02776 2.98507 5.99626 2.94007 5.97526 2.87407C5.96626 2.84707 5.96176 2.81257 5.96176 2.77057C5.96176 2.70457 5.97076 2.62957 5.98876 2.54557C6.00676 2.46157 6.02626 2.39107 6.04726 2.33407C6.06226 2.29207 6.08176 2.24557 6.10576 2.19457C6.13276 2.14057 6.15676 2.09557 6.17776 2.05957C6.08476 2.09557 5.99476 2.14957 5.90776 2.22157C5.82076 2.29357 5.74126 2.36707 5.66926 2.44207C5.60026 2.51407 5.54176 2.57407 5.49376 2.62207C5.48176 2.65507 5.45776 2.68207 5.42176 2.70307C5.38876 2.72407 5.35726 2.73457 5.32726 2.73457C5.28226 2.73457 5.25976 2.71507 5.25976 2.67607C5.25976 2.66107 5.26426 2.64307 5.27326 2.62207C5.30326 2.55007 5.33626 2.47657 5.37226 2.40157C5.41126 2.32357 5.44576 2.25307 5.47576 2.19007C5.50876 2.12707 5.53126 2.08357 5.54326 2.05957C5.56726 2.01757 5.57926 1.98457 5.57926 1.96057C5.57926 1.93657 5.56876 1.92457 5.54776 1.92457C5.52676 1.92457 5.49226 1.93807 5.44426 1.96507C5.39626 1.99207 5.33326 2.04007 5.25526 2.10907C5.19226 2.16607 5.12326 2.24107 5.04826 2.33407C4.97326 2.42407 4.90126 2.51707 4.83226 2.61307C4.76326 2.70907 4.70176 2.79157 4.64776 2.86057C4.59676 2.92957 4.56076 2.97007 4.53976 2.98207C4.52176 2.99107 4.48576 3.00607 4.43176 3.02707C4.38076 3.04807 4.34176 3.05857 4.31476 3.05857Z" fill="#B5967A"/>
<path d="M2.19782 3.04947C2.11382 3.04947 2.04032 3.02997 1.97732 2.99097C1.87232 2.92797 1.81982 2.81397 1.81982 2.64897C1.81982 2.57997 1.83182 2.50047 1.85582 2.41047C1.87682 2.33547 1.91432 2.25447 1.96832 2.16747C2.02232 2.07747 2.08532 1.99197 2.15732 1.91097C2.23232 1.82997 2.31332 1.76397 2.40032 1.71297C2.48732 1.66197 2.57432 1.63647 2.66132 1.63647C2.69732 1.63647 2.72882 1.64097 2.75582 1.64997C2.79182 1.66197 2.82182 1.68447 2.84582 1.71747C2.87282 1.74747 2.88632 1.78647 2.88632 1.83447C2.88632 1.88547 2.87282 1.91397 2.84582 1.91997C2.82182 1.92597 2.80982 1.91997 2.80982 1.90197C2.80982 1.89597 2.80982 1.88997 2.80982 1.88397C2.81282 1.87797 2.81432 1.87347 2.81432 1.87047C2.81432 1.84647 2.80682 1.82547 2.79182 1.80747C2.77982 1.78647 2.75582 1.77597 2.71982 1.77597C2.67182 1.77597 2.61182 1.80147 2.53982 1.85247C2.47082 1.90347 2.39882 1.97247 2.32382 2.05947C2.25182 2.14347 2.18732 2.23647 2.13032 2.33847C2.07632 2.44047 2.04032 2.54247 2.02232 2.64447C2.01932 2.65947 2.01632 2.67447 2.01332 2.68947C2.01332 2.70147 2.01332 2.71497 2.01332 2.72997C2.01332 2.79897 2.02832 2.85747 2.05832 2.90547C2.09132 2.95047 2.14232 2.97297 2.21132 2.97297C2.29532 2.97297 2.37632 2.94147 2.45432 2.87847C2.53232 2.81247 2.60132 2.73447 2.66132 2.64447C2.72432 2.55447 2.77082 2.47497 2.80082 2.40597C2.82482 2.35197 2.84132 2.30547 2.85032 2.26647C2.85932 2.22747 2.86382 2.19447 2.86382 2.16747C2.86382 2.14347 2.86082 2.12247 2.85482 2.10447C2.85182 2.08647 2.84732 2.07147 2.84132 2.05947C2.83532 2.04147 2.83232 2.02797 2.83232 2.01897C2.83232 1.99497 2.84132 1.97547 2.85932 1.96047C2.88032 1.94547 2.90132 1.93797 2.92232 1.93797C2.94032 1.93797 2.95982 1.94397 2.98082 1.95597C3.00482 1.96197 3.03782 1.96647 3.07982 1.96947C3.12182 1.97247 3.16682 1.97397 3.21482 1.97397C3.26582 1.97397 3.31682 1.97247 3.36782 1.96947C3.42182 1.96647 3.46832 1.96047 3.50732 1.95147C3.51332 1.94847 3.52232 1.94697 3.53432 1.94697C3.55532 1.94697 3.56582 1.95297 3.56582 1.96497C3.56582 1.97697 3.55532 1.98747 3.53432 1.99647C3.42932 2.04447 3.33482 2.06997 3.25082 2.07297C3.16982 2.07597 3.09932 2.07747 3.03932 2.07747C3.04532 2.15247 3.02882 2.23347 2.98982 2.32047C2.95082 2.40447 2.91032 2.47947 2.86832 2.54547C2.81732 2.62047 2.75882 2.69697 2.69282 2.77497C2.62682 2.85297 2.55332 2.91897 2.47232 2.97297C2.39132 3.02397 2.29982 3.04947 2.19782 3.04947Z" fill="#B5967A"/>
<path d="M0.560301 1.677C0.515301 1.665 0.464301 1.641 0.407301 1.605C0.350301 1.566 0.300801 1.518 0.258801 1.461C0.216801 1.401 0.195801 1.335 0.195801 1.263C0.195801 1.23 0.201801 1.197 0.213801 1.164C0.213801 1.161 0.213801 1.1505 0.213801 1.1325C0.216801 1.1145 0.219801 1.0995 0.222801 1.0875C0.255801 0.937498 0.332301 0.814498 0.452301 0.718498C0.572301 0.619498 0.719301 0.542998 0.893301 0.488998C1.0673 0.434998 1.2488 0.401998 1.4378 0.389998C1.4738 0.386998 1.5098 0.385498 1.5458 0.385498C1.5818 0.385498 1.6178 0.385498 1.6538 0.385498C1.8638 0.385498 2.0723 0.398998 2.2793 0.425998C2.4863 0.452998 2.6738 0.479998 2.8418 0.506998C3.0128 0.530998 3.1478 0.544498 3.2468 0.547498C3.3308 0.460498 3.3923 0.412498 3.4313 0.403498C3.4403 0.400498 3.4538 0.398998 3.4718 0.398998C3.5048 0.398998 3.5348 0.407998 3.5618 0.425998C3.5888 0.440998 3.6023 0.463498 3.6023 0.493498C3.6023 0.520498 3.5903 0.545998 3.5663 0.569998C3.5453 0.590998 3.5123 0.616498 3.4673 0.646498C3.4223 0.676498 3.3788 0.713998 3.3368 0.758998C3.2768 0.818998 3.2228 0.886498 3.1748 0.961498C3.1268 1.0365 3.1028 1.1085 3.1028 1.1775C3.1028 1.2285 3.1148 1.272 3.1388 1.308C3.1448 1.314 3.1478 1.32 3.1478 1.326C3.1478 1.35 3.1358 1.362 3.1118 1.362C3.0908 1.362 3.0683 1.35 3.0443 1.326C3.0203 1.296 3.0083 1.2315 3.0083 1.1325C3.0083 1.0725 3.0143 1.008 3.0263 0.938998C3.0383 0.869998 3.0593 0.806998 3.0893 0.749998C3.1013 0.728998 3.1178 0.704998 3.1388 0.677998C3.1628 0.647998 3.1808 0.625498 3.1928 0.610498C2.9768 0.607498 2.7578 0.595498 2.5358 0.574498C2.3138 0.553498 2.0948 0.542998 1.8788 0.542998C1.7768 0.542998 1.6628 0.550498 1.5368 0.565498C1.4108 0.577498 1.2818 0.598498 1.1498 0.628498C1.0178 0.658498 0.894801 0.701998 0.780801 0.758998C0.666801 0.812998 0.569301 0.880498 0.488301 0.961498C0.407301 1.0425 0.354801 1.14 0.330801 1.254C0.327801 1.266 0.324801 1.2765 0.321801 1.2855C0.321801 1.2945 0.321801 1.3035 0.321801 1.3125C0.321801 1.3695 0.338301 1.4175 0.371301 1.4565C0.407301 1.4955 0.447801 1.5285 0.492801 1.5555C0.537801 1.5795 0.572301 1.602 0.596301 1.623C0.617301 1.635 0.627801 1.647 0.627801 1.659C0.627801 1.671 0.620301 1.6785 0.605301 1.6815C0.593301 1.6845 0.578301 1.683 0.560301 1.677ZM1.0058 3.1215C0.996801 3.1215 0.978801 3.1185 0.951801 3.1125C0.924801 3.1065 0.899301 3.099 0.875301 3.09C0.851301 3.081 0.837801 3.0705 0.834801 3.0585C0.825801 3.0015 0.839301 2.9205 0.875301 2.8155C0.914301 2.7075 0.963801 2.589 1.0238 2.46C1.0868 2.331 1.1513 2.202 1.2173 2.073C1.2863 1.944 1.3493 1.8285 1.4063 1.7265C1.4633 1.6215 1.5053 1.542 1.5323 1.488C1.5563 1.437 1.5683 1.395 1.5683 1.362C1.5683 1.347 1.5668 1.3365 1.5638 1.3305C1.5638 1.3215 1.5623 1.314 1.5593 1.308C1.5653 1.272 1.5878 1.224 1.6268 1.164C1.6658 1.104 1.7138 1.044 1.7708 0.983998C1.8278 0.923998 1.8878 0.874498 1.9508 0.835498C2.0168 0.793498 2.0798 0.772498 2.1398 0.772498C2.1578 0.772498 2.1893 0.779998 2.2343 0.794998C2.2793 0.806998 2.3198 0.827998 2.3558 0.857998C2.3918 0.887998 2.4068 0.926998 2.4008 0.974998C2.3798 0.959998 2.3618 0.952498 2.3468 0.952498C2.2778 0.952498 2.2028 0.985498 2.1218 1.0515C2.0408 1.1175 1.9568 1.206 1.8698 1.317C1.7858 1.428 1.7018 1.5495 1.6178 1.6815C1.5368 1.8135 1.4603 1.947 1.3883 2.082C1.3163 2.214 1.2533 2.337 1.1993 2.451C1.1453 2.562 1.1033 2.652 1.0733 2.721C1.0613 2.751 1.0523 2.778 1.0463 2.802C1.0403 2.826 1.0373 2.8455 1.0373 2.8605C1.0373 2.9025 1.0523 2.9235 1.0823 2.9235C1.1033 2.9235 1.1258 2.916 1.1498 2.901C1.1738 2.883 1.1963 2.862 1.2173 2.838C1.2503 2.799 1.2803 2.763 1.3073 2.73C1.3343 2.694 1.3583 2.679 1.3793 2.685C1.3823 2.688 1.3838 2.6925 1.3838 2.6985C1.3838 2.7165 1.3748 2.7375 1.3568 2.7615C1.3388 2.7855 1.3283 2.799 1.3253 2.802C1.3013 2.832 1.2713 2.8725 1.2353 2.9235C1.2023 2.9745 1.1663 3.0195 1.1273 3.0585C1.0883 3.1005 1.0478 3.1215 1.0058 3.1215Z" fill="#B5967A"/>
</g>
    </g>

    <!-- 오른쪽 드라이플라워 (이제 왁스보다 아래쪽에 위치) -->
    <g transform="translate(-10, -25) rotate(-20)">
      <g transform="translate(5, -5)">
        <path d="M 0 0 Q 2 10 3 20 Q 2 30 4 40" 
              stroke="#B5967A" stroke-width="1" fill="none" opacity="0.7"/>

        <circle cx="2" cy="8" r="2" fill="#D4C4B0" opacity="0.6"/>
        <circle cx="5" cy="10" r="1.3" fill="#C9B8A0" opacity="0.5"/>
        <circle cx="6" cy="20" r="1.5" fill="#D4C4B0" opacity="0.5"/>
        <circle cx="4" cy="30" r="2" fill="#C9B8A0" opacity="0.6"/>
        <circle cx="1" cy="25" r="1.5" fill="#D4C4B0" opacity="0.5"/>
        <circle cx="5" cy="28" r="1.3" fill="#B5967A" opacity="0.5"/>
        <ellipse cx="2" cy="15" rx="1.8" ry="3.5" fill="#C9B8A0" opacity="0.4" transform="rotate(25 2 15)"/>
        <ellipse cx="4" cy="22" rx="2" ry="4" fill="#B5967A" opacity="0.4" transform="rotate(-15 4 22)"/>
      </g>
    </g>

    <!-- 현실적인 왁스 스탬프 (이제 꽃 위에 표시) -->
    <g transform="translate(0, -20) scale(0.7)">
      <path d="M -7 -2 Q -4 -10 0 -8 Q 6 -10 9 -4 
               Q 14 -2 9 2 Q 10 6 4 8 
               Q 0 10 -4 8 Q -10 6 -9 0 Z" 
            fill="#A67C5D" opacity="0.85"/>
      <path d="M -7 -2 Q -4 -10 0 -8 Q 6 -10 9 -4 
               Q 14 -2 9 2 Q 10 6 4 8 
               Q 0 10 -4 8 Q -10 6 -9 0 Z" 
            fill="#8B6A4F" opacity="0.3"/>

      <!-- 꽃 문양 -->
      <circle cx="0" cy="0" r="2.5" fill="#F5EFE5" opacity="0.7"/>
      <circle cx="3" cy="0" r="1.3" fill="#F5EFE5" opacity="0.6"/>
      <circle cx="-3" cy="0" r="1.3" fill="#F5EFE5" opacity="0.6"/>
      <circle cx="0" cy="3" r="1.3" fill="#F5EFE5" opacity="0.6"/>
      <circle cx="0" cy="-3" r="1.3" fill="#F5EFE5" opacity="0.6"/>
      <circle cx="2" cy="2" r="1" fill="#F5EFE5" opacity="0.5"/>
      <circle cx="-2" cy="2" r="1" fill="#F5EFE5" opacity="0.5"/>
      <circle cx="2" cy="-2" r="1" fill="#F5EFE5" opacity="0.5"/>
      <circle cx="-2" cy="-2" r="1" fill="#F5EFE5" opacity="0.5"/>
    </g>
  </g>

  <!-- 왼쪽 드라이플라워 -->
  <g transform="translate(70, 85)">
    <path d="M 0 0 Q -3 8 -2 18 Q -1 28 -3 38" 
          stroke="#B5967A" stroke-width="1.2" fill="none" opacity="0.8"/>
    <circle cx="-1" cy="10" r="2.5" fill="#C9B8A0" opacity="0.7"/>
    <circle cx="-4" cy="12" r="1.5" fill="#B5967A" opacity="0.6"/>
    <circle cx="-2" cy="20" r="2" fill="#D4C4B0" opacity="0.7"/>
    <circle cx="-5" cy="22" r="1.8" fill="#C9B8A0" opacity="0.6"/>
    <circle cx="-3" cy="30" r="2.2" fill="#B5967A" opacity="0.7"/>
    <circle cx="-6" cy="32" r="1.5" fill="#D4C4B0" opacity="0.6"/>
    <ellipse cx="-7" cy="15" rx="2" ry="4" fill="#C9B8A0" opacity="0.5" transform="rotate(-30 -7 15)"/>
    <ellipse cx="-8" cy="25" rx="2.5" ry="5" fill="#B5967A" opacity="0.5" transform="rotate(20 -8 25)"/>
    <circle cx="-10" cy="8" r="1.2" fill="#D4C4B0" opacity="0.3"/>
    <circle cx="-12" cy="18" r="1.5" fill="#C9B8A0" opacity="0.25"/>
    <circle cx="-8" cy="25" r="1" fill="#B5967A" opacity="0.2"/>
  </g>

  <!-- 하단 드라이플라워 장식 -->
  <!-- <g transform="translate(100, 152)">
    <path d="M 0 0 Q -8 -3 -15 -2 M 0 0 Q 8 -2 14 -3" 
          stroke="#B5967A" stroke-width="1.5" fill="none" opacity="0.6"/>
    <circle cx="-10" cy="-3" r="2.5" fill="#C9B8A0" opacity="0.6"/>
    <circle cx="-13" cy="-2" r="1.8" fill="#D4C4B0" opacity="0.5"/>
    <circle cx="10" cy="-3" r="2" fill="#B5967A" opacity="0.6"/>
    <circle cx="12" cy="-4" r="1.5" fill="#C9B8A0" opacity="0.5"/>
  </g> -->
</svg>