<svg width="18" height="18" viewBox="0 0 18 18" fill="none" xmlns="http://www.w3.org/2000/svg">
<path d="M3.23438 3.9375V14.0625C3.23437 14.1744 3.18993 14.2817 3.11081 14.3608C3.03169 14.4399 2.92439 14.4844 2.8125 14.4844C2.70061 14.4844 2.59331 14.4399 2.51419 14.3608C2.43507 14.2817 2.39063 14.1744 2.39062 14.0625V3.9375C2.39062 3.82561 2.43507 3.71831 2.51419 3.63919C2.59331 3.56007 2.70061 3.51563 2.8125 3.51562C2.92439 3.51563 3.03169 3.56007 3.11081 3.63919C3.18993 3.71831 3.23438 3.82561 3.23438 3.9375ZM9.88453 7.90383L8.29688 8.41922V6.75C8.29688 6.63811 8.25243 6.53081 8.17331 6.45169C8.09419 6.37257 7.98689 6.32812 7.875 6.32812C7.76311 6.32812 7.65581 6.37257 7.57669 6.45169C7.49757 6.53081 7.45312 6.63811 7.45312 6.75V8.41922L5.86547 7.90383C5.81249 7.88553 5.7564 7.87797 5.70047 7.88159C5.64454 7.88521 5.58989 7.89994 5.53971 7.92492C5.48954 7.9499 5.44485 7.98463 5.40824 8.02707C5.37164 8.06952 5.34386 8.11883 5.32653 8.17213C5.3092 8.22543 5.30266 8.28165 5.3073 8.33751C5.31194 8.39337 5.32767 8.44774 5.35356 8.49745C5.37944 8.54716 5.41498 8.59121 5.45808 8.62704C5.50119 8.66286 5.551 8.68974 5.60461 8.70609L7.19227 9.22148L6.20789 10.5722C6.17387 10.6169 6.14912 10.6679 6.13508 10.7223C6.12105 10.7767 6.11802 10.8333 6.12616 10.8889C6.1343 10.9445 6.15346 10.9978 6.1825 11.0459C6.21155 11.094 6.24991 11.1358 6.29531 11.1688C6.34072 11.2019 6.39228 11.2255 6.44695 11.2384C6.50162 11.2512 6.55831 11.2531 6.61369 11.2437C6.66907 11.2344 6.72203 11.2141 6.76947 11.184C6.8169 11.1539 6.85785 11.1147 6.88992 11.0686L7.8743 9.71789L8.85867 11.0686C8.92549 11.1564 9.02404 11.2145 9.13319 11.2305C9.24234 11.2465 9.35342 11.2191 9.44262 11.1542C9.53181 11.0892 9.59203 10.992 9.61036 10.8832C9.6287 10.7744 9.60369 10.6628 9.5407 10.5722L8.55633 9.22148L10.144 8.70609C10.1976 8.68974 10.2474 8.66286 10.2905 8.62704C10.3336 8.59121 10.3691 8.54716 10.395 8.49745C10.4209 8.44774 10.4367 8.39337 10.4413 8.33751C10.4459 8.28165 10.4394 8.22543 10.4221 8.17213C10.4047 8.11883 10.377 8.06952 10.3404 8.02707C10.3037 7.98463 10.2591 7.9499 10.2089 7.92492C10.1587 7.89994 10.1041 7.88521 10.0481 7.88159C9.99219 7.87797 9.9361 7.88553 9.88312 7.90383H9.88453ZM17.1661 8.17453C17.1315 8.06816 17.056 7.97988 16.9564 7.92912C16.8567 7.87835 16.7409 7.86926 16.6345 7.90383L15.0469 8.41922V6.75C15.0469 6.63811 15.0024 6.53081 14.9233 6.45169C14.8442 6.37257 14.7369 6.32812 14.625 6.32812C14.5131 6.32812 14.4058 6.37257 14.3267 6.45169C14.2476 6.53081 14.2031 6.63811 14.2031 6.75V8.41922L12.6155 7.90383C12.5625 7.88553 12.5064 7.87797 12.4505 7.88159C12.3945 7.88521 12.3399 7.89994 12.2897 7.92492C12.2395 7.9499 12.1948 7.98463 12.1582 8.02707C12.1216 8.06952 12.0939 8.11883 12.0765 8.17213C12.0592 8.22543 12.0527 8.28165 12.0573 8.33751C12.0619 8.39337 12.0777 8.44774 12.1036 8.49745C12.1294 8.54716 12.165 8.59121 12.2081 8.62704C12.2512 8.66286 12.301 8.68974 12.3546 8.70609L13.9423 9.22148L12.9614 10.5722C12.9274 10.6169 12.9026 10.6679 12.8886 10.7223C12.8746 10.7767 12.8715 10.8333 12.8797 10.8889C12.8878 10.9445 12.907 10.9978 12.936 11.0459C12.9651 11.094 13.0034 11.1358 13.0488 11.1688C13.0942 11.2019 13.1458 11.2255 13.2005 11.2384C13.2551 11.2512 13.3118 11.2531 13.3672 11.2437C13.4226 11.2344 13.4755 11.2141 13.523 11.184C13.5704 11.1539 13.6114 11.1147 13.6434 11.0686L14.6278 9.71789L15.6122 11.0686C15.679 11.1564 15.7776 11.2145 15.8867 11.2305C15.9959 11.2465 16.1069 11.2191 16.1961 11.1542C16.2853 11.0892 16.3455 10.992 16.3639 10.8832C16.3822 10.7744 16.3572 10.6628 16.2942 10.5722L15.3134 9.22148L16.901 8.70609C17.0064 8.67034 17.0933 8.59442 17.143 8.49487C17.1926 8.39532 17.2009 8.28018 17.1661 8.17453Z" fill="#4C4545"/>
</svg>
