<svg width="16" height="15" viewBox="0 0 16 15" fill="none" xmlns="http://www.w3.org/2000/svg">
<path d="M15.2368 13.9063C14.1659 12.0549 12.5157 10.7274 10.5898 10.0981C11.5424 9.53105 12.2826 8.66692 12.6965 7.63847C13.1105 6.61002 13.1754 5.47412 12.8814 4.40519C12.5873 3.33627 11.9504 2.39344 11.0686 1.72148C10.1868 1.04953 9.10886 0.685608 8.00022 0.685608C6.89158 0.685608 5.81359 1.04953 4.9318 1.72148C4.05001 2.39344 3.41317 3.33627 3.11909 4.40519C2.825 5.47412 2.88993 6.61002 3.3039 7.63847C3.71787 8.66692 4.45799 9.53105 5.41061 10.0981C3.48475 10.7267 1.83452 12.0542 0.763658 13.9063C0.724388 13.9703 0.69834 14.0416 0.687052 14.1158C0.675764 14.1901 0.679464 14.2658 0.697933 14.3387C0.716403 14.4115 0.749268 14.4798 0.79459 14.5397C0.839912 14.5996 0.896772 14.6499 0.961816 14.6874C1.02686 14.725 1.09877 14.7492 1.1733 14.7585C1.24784 14.7678 1.32349 14.7621 1.39578 14.7417C1.46808 14.7214 1.53556 14.6867 1.59425 14.6398C1.65294 14.5929 1.70164 14.5348 1.73749 14.4688C3.06217 12.1794 5.40358 10.8125 8.00022 10.8125C10.5969 10.8125 12.9383 12.1794 14.263 14.4688C14.2988 14.5348 14.3475 14.5929 14.4062 14.6398C14.4649 14.6867 14.5324 14.7214 14.6047 14.7417C14.677 14.7621 14.7526 14.7678 14.8271 14.7585C14.9017 14.7492 14.9736 14.725 15.0386 14.6874C15.1037 14.6499 15.1605 14.5996 15.2059 14.5397C15.2512 14.4798 15.284 14.4115 15.3025 14.3387C15.321 14.2658 15.3247 14.1901 15.3134 14.1158C15.3021 14.0416 15.2761 13.9703 15.2368 13.9063ZM4.06272 5.75002C4.06272 4.97126 4.29365 4.20998 4.72631 3.56246C5.15897 2.91494 5.77392 2.41026 6.4934 2.11224C7.21289 1.81422 8.00459 1.73625 8.76839 1.88818C9.53219 2.04011 10.2338 2.41512 10.7845 2.96579C11.3351 3.51646 11.7101 4.21805 11.8621 4.98185C12.014 5.74565 11.936 6.53735 11.638 7.25684C11.34 7.97632 10.8353 8.59127 10.1878 9.02393C9.54026 9.45659 8.77899 9.68752 8.00022 9.68752C6.95627 9.6864 5.9554 9.2712 5.21722 8.53302C4.47904 7.79484 4.06384 6.79397 4.06272 5.75002Z" fill="#635A53"/>
</svg>
