<svg width="18" height="18" viewBox="0 0 18 18" fill="none" xmlns="http://www.w3.org/2000/svg">
<path d="M16.2368 14.9063C15.1659 13.0549 13.5157 11.7274 11.5898 11.0981C12.5424 10.531 13.2826 9.66692 13.6965 8.63847C14.1105 7.61002 14.1754 6.47412 13.8814 5.40519C13.5873 4.33627 12.9504 3.39344 12.0686 2.72148C11.1868 2.04953 10.1089 1.68561 9.00022 1.68561C7.89158 1.68561 6.81359 2.04953 5.9318 2.72148C5.05001 3.39344 4.41317 4.33627 4.11909 5.40519C3.825 6.47412 3.88993 7.61002 4.3039 8.63847C4.71787 9.66692 5.45799 10.531 6.41061 11.0981C4.48475 11.7267 2.83452 13.0542 1.76366 14.9063C1.72439 14.9703 1.69834 15.0416 1.68705 15.1158C1.67576 15.1901 1.67946 15.2658 1.69793 15.3387C1.7164 15.4115 1.74927 15.4798 1.79459 15.5397C1.83991 15.5996 1.89677 15.6499 1.96182 15.6874C2.02686 15.725 2.09877 15.7492 2.1733 15.7585C2.24784 15.7678 2.32349 15.7621 2.39578 15.7417C2.46808 15.7214 2.53556 15.6867 2.59425 15.6398C2.65294 15.5929 2.70164 15.5348 2.73749 15.4688C4.06217 13.1794 6.40358 11.8125 9.00022 11.8125C11.5969 11.8125 13.9383 13.1794 15.263 15.4688C15.2988 15.5348 15.3475 15.5929 15.4062 15.6398C15.4649 15.6867 15.5324 15.7214 15.6047 15.7417C15.677 15.7621 15.7526 15.7678 15.8271 15.7585C15.9017 15.7492 15.9736 15.725 16.0386 15.6874C16.1037 15.6499 16.1605 15.5996 16.2059 15.5397C16.2512 15.4798 16.284 15.4115 16.3025 15.3387C16.321 15.2658 16.3247 15.1901 16.3134 15.1158C16.3021 15.0416 16.2761 14.9703 16.2368 14.9063ZM5.06272 6.75002C5.06272 5.97126 5.29365 5.20998 5.72631 4.56246C6.15897 3.91494 6.77392 3.41026 7.4934 3.11224C8.21289 2.81422 9.00459 2.73625 9.76839 2.88818C10.5322 3.04011 11.2338 3.41512 11.7845 3.96579C12.3351 4.51646 12.7101 5.21805 12.8621 5.98185C13.014 6.74565 12.936 7.53735 12.638 8.25684C12.34 8.97632 11.8353 9.59127 11.1878 10.0239C10.5403 10.4566 9.77899 10.6875 9.00022 10.6875C7.95627 10.6864 6.9554 10.2712 6.21722 9.53302C5.47904 8.79484 5.06384 7.79397 5.06272 6.75002Z" fill="#635A53"/>
</svg>
