<svg width="24" height="24" viewBox="0 0 24 24" fill="none" xmlns="http://www.w3.org/2000/svg">
<path d="M8 5H16C16.9193 5 17.8295 5.18106 18.6788 5.53284C19.5281 5.88463 20.2997 6.40024 20.9497 7.05025C21.5998 7.70026 22.1154 8.47194 22.4672 9.32122C22.8189 10.1705 23 11.0807 23 12C23 12.9193 22.8189 13.8295 22.4672 14.6788C22.1154 15.5281 21.5998 16.2997 20.9497 16.9497C20.2997 17.5998 19.5281 18.1154 18.6788 18.4672C17.8295 18.8189 16.9193 19 16 19H8C7.08075 19 6.1705 18.8189 5.32122 18.4672C4.47194 18.1154 3.70026 17.5998 3.05025 16.9497C2.40024 16.2997 1.88463 15.5281 1.53284 14.6788C1.18106 13.8295 1 12.9193 1 12C1 11.0807 1.18106 10.1705 1.53284 9.32122C1.88463 8.47194 2.40024 7.70026 3.05025 7.05025C3.70026 6.40024 4.47194 5.88463 5.32122 5.53284C6.1705 5.18106 7.08075 5 8 5ZM16 15C16.7956 15 17.5587 14.6839 18.1213 14.1213C18.6839 13.5587 19 12.7956 19 12C19 11.2044 18.6839 10.4413 18.1213 9.87868C17.5587 9.31607 16.7956 9 16 9C15.2044 9 14.4413 9.31607 13.8787 9.87868C13.3161 10.4413 13 11.2044 13 12C13 12.7956 13.3161 13.5587 13.8787 14.1213C14.4413 14.6839 15.2044 15 16 15Z" fill="#4C4545"/>
</svg>
