<svg width="24" height="24" viewBox="0 0 24 24" fill="none" xmlns="http://www.w3.org/2000/svg">
<path d="M8 7C6.67392 7 5.40215 7.52678 4.46447 8.46447C3.52678 9.40215 3 10.6739 3 12C3 13.3261 3.52678 14.5979 4.46447 15.5355C5.40215 16.4732 6.67392 17 8 17H16C17.3261 17 18.5979 16.4732 19.5355 15.5355C20.4732 14.5979 21 13.3261 21 12C21 10.6739 20.4732 9.40215 19.5355 8.46447C18.5979 7.52678 17.3261 7 16 7H8ZM8 5H16C16.9193 5 17.8295 5.18106 18.6788 5.53284C19.5281 5.88463 20.2997 6.40024 20.9497 7.05025C21.5998 7.70026 22.1154 8.47194 22.4672 9.32122C22.8189 10.1705 23 11.0807 23 12C23 12.9193 22.8189 13.8295 22.4672 14.6788C22.1154 15.5281 21.5998 16.2997 20.9497 16.9497C20.2997 17.5998 19.5281 18.1154 18.6788 18.4672C17.8295 18.8189 16.9193 19 16 19H8C7.08075 19 6.1705 18.8189 5.32122 18.4672C4.47194 18.1154 3.70026 17.5998 3.05025 16.9497C2.40024 16.2997 1.88463 15.5281 1.53284 14.6788C1.18106 13.8295 1 12.9193 1 12C1 11.0807 1.18106 10.1705 1.53284 9.32122C1.88463 8.47194 2.40024 7.70026 3.05025 7.05025C3.70026 6.40024 4.47194 5.88463 5.32122 5.53284C6.1705 5.18106 7.08075 5 8 5ZM8 15C7.20435 15 6.44129 14.6839 5.87868 14.1213C5.31607 13.5587 5 12.7956 5 12C5 11.2044 5.31607 10.4413 5.87868 9.87868C6.44129 9.31607 7.20435 9 8 9C8.79565 9 9.55871 9.31607 10.1213 9.87868C10.6839 10.4413 11 11.2044 11 12C11 12.7956 10.6839 13.5587 10.1213 14.1213C9.55871 14.6839 8.79565 15 8 15Z" fill="#4C4545"/>
</svg>
